<mxfile host="65bd71144e">
    <diagram id="khgGDddbiVl-YgNx5Uud" name="Page-1">
        <mxGraphModel dx="815" dy="892" grid="1" gridSize="10" guides="1" tooltips="1" connect="1" arrows="1" fold="1" page="1" pageScale="1" pageWidth="850" pageHeight="1100" math="0" shadow="0">
            <root>
                <mxCell id="0"/>
                <mxCell id="1" parent="0"/>
                <mxCell id="2" style="edgeStyle=none;html=1;" edge="1" parent="1" source="3" target="5">
                    <mxGeometry relative="1" as="geometry"/>
                </mxCell>
                <mxCell id="3" value="Start" style="ellipse;whiteSpace=wrap;html=1;" vertex="1" parent="1">
                    <mxGeometry x="350" y="40" width="150" height="80" as="geometry"/>
                </mxCell>
                <mxCell id="54" style="edgeStyle=none;html=1;" edge="1" parent="1" source="5" target="9">
                    <mxGeometry relative="1" as="geometry"/>
                </mxCell>
                <mxCell id="5" value="secret(s1: &quot;MYJOBTEST&quot;, s2: &quot;JOB&quot;)" style="whiteSpace=wrap;html=1;" vertex="1" parent="1">
                    <mxGeometry x="315" y="180" width="220" height="60" as="geometry"/>
                </mxCell>
                <mxCell id="55" style="edgeStyle=none;html=1;" edge="1" parent="1" source="7" target="15">
                    <mxGeometry relative="1" as="geometry">
                        <mxPoint x="279.0799999999999" y="562.1600000000001" as="targetPoint"/>
                    </mxGeometry>
                </mxCell>
                <mxCell id="57" style="edgeStyle=none;html=1;" edge="1" parent="1" source="7" target="63">
                    <mxGeometry relative="1" as="geometry">
                        <mxPoint x="548.75" y="560" as="targetPoint"/>
                    </mxGeometry>
                </mxCell>
                <mxCell id="7" value="s1.length() &amp;lt; s2.length()" style="rhombus;whiteSpace=wrap;html=1;" vertex="1" parent="1">
                    <mxGeometry x="330" y="430" width="190" height="80" as="geometry"/>
                </mxCell>
                <mxCell id="8" style="edgeStyle=none;html=1;" edge="1" parent="1" source="9" target="7">
                    <mxGeometry relative="1" as="geometry"/>
                </mxCell>
                <mxCell id="9" value="s2.length() == 0" style="rhombus;whiteSpace=wrap;html=1;" vertex="1" parent="1">
                    <mxGeometry x="330" y="300" width="190" height="80" as="geometry"/>
                </mxCell>
                <mxCell id="10" value="false" style="text;html=1;align=center;verticalAlign=middle;resizable=0;points=[];autosize=1;strokeColor=none;fillColor=none;" vertex="1" parent="1">
                    <mxGeometry x="425" y="390" width="50" height="30" as="geometry"/>
                </mxCell>
                <mxCell id="11" value="false" style="text;html=1;align=center;verticalAlign=middle;resizable=0;points=[];autosize=1;strokeColor=none;fillColor=none;" vertex="1" parent="1">
                    <mxGeometry x="400" y="520" width="50" height="30" as="geometry"/>
                </mxCell>
                <mxCell id="12" style="edgeStyle=none;html=1;" edge="1" parent="1" target="15">
                    <mxGeometry relative="1" as="geometry">
                        <mxPoint x="274.49820788530474" y="619.1039426523298" as="sourcePoint"/>
                    </mxGeometry>
                </mxCell>
                <mxCell id="62" style="edgeStyle=none;html=1;" edge="1" parent="1" source="15" target="61">
                    <mxGeometry relative="1" as="geometry"/>
                </mxCell>
                <mxCell id="15" value="mystery(s1: &quot;MYJOBTEST&quot;, s2: &quot;JOB&quot;)" style="whiteSpace=wrap;html=1;" vertex="1" parent="1">
                    <mxGeometry x="140" y="560" width="220" height="60" as="geometry"/>
                </mxCell>
                <mxCell id="51" value="ג" style="text;html=1;align=center;verticalAlign=middle;resizable=0;points=[];autosize=1;strokeColor=none;fillColor=none;" vertex="1" parent="1">
                    <mxGeometry x="675" y="65" width="30" height="30" as="geometry"/>
                </mxCell>
                <mxCell id="52" value="ד" style="text;html=1;align=center;verticalAlign=middle;resizable=0;points=[];autosize=1;strokeColor=none;fillColor=none;" vertex="1" parent="1">
                    <mxGeometry x="740" y="1720" width="30" height="30" as="geometry"/>
                </mxCell>
                <mxCell id="53" value="הפעולה בודקת אם מחרוזת 2 מוכלת במחרוזת 1" style="text;html=1;align=center;verticalAlign=middle;resizable=0;points=[];autosize=1;strokeColor=none;fillColor=none;" vertex="1" parent="1">
                    <mxGeometry x="470" y="1720" width="270" height="30" as="geometry"/>
                </mxCell>
                <mxCell id="59" value="OR" style="text;html=1;align=center;verticalAlign=middle;resizable=0;points=[];autosize=1;strokeColor=none;fillColor=none;" vertex="1" parent="1">
                    <mxGeometry x="405" y="575" width="40" height="30" as="geometry"/>
                </mxCell>
                <mxCell id="61" value="return false" style="shape=parallelogram;perimeter=parallelogramPerimeter;whiteSpace=wrap;html=1;fixedSize=1;" vertex="1" parent="1">
                    <mxGeometry x="190" y="680" width="120" height="60" as="geometry"/>
                </mxCell>
                <mxCell id="89" style="edgeStyle=none;html=1;" edge="1" parent="1" source="63" target="80">
                    <mxGeometry relative="1" as="geometry"/>
                </mxCell>
                <mxCell id="63" value="secret(s1: &quot;YJOBTEST&quot;, s2: &quot;JOB&quot;)" style="whiteSpace=wrap;html=1;" vertex="1" parent="1">
                    <mxGeometry x="490" y="560" width="220" height="60" as="geometry"/>
                </mxCell>
                <mxCell id="76" style="edgeStyle=none;html=1;" edge="1" source="78" target="85" parent="1">
                    <mxGeometry relative="1" as="geometry">
                        <mxPoint x="279.0799999999999" y="1002.1600000000001" as="targetPoint"/>
                    </mxGeometry>
                </mxCell>
                <mxCell id="77" style="edgeStyle=none;html=1;" edge="1" source="78" target="88" parent="1">
                    <mxGeometry relative="1" as="geometry">
                        <mxPoint x="548.75" y="1000" as="targetPoint"/>
                    </mxGeometry>
                </mxCell>
                <mxCell id="78" value="s1.length() &amp;lt; s2.length()" style="rhombus;whiteSpace=wrap;html=1;" vertex="1" parent="1">
                    <mxGeometry x="330" y="870" width="190" height="80" as="geometry"/>
                </mxCell>
                <mxCell id="79" style="edgeStyle=none;html=1;" edge="1" source="80" target="78" parent="1">
                    <mxGeometry relative="1" as="geometry"/>
                </mxCell>
                <mxCell id="80" value="s2.length() == 0" style="rhombus;whiteSpace=wrap;html=1;" vertex="1" parent="1">
                    <mxGeometry x="330" y="740" width="190" height="80" as="geometry"/>
                </mxCell>
                <mxCell id="81" value="false" style="text;html=1;align=center;verticalAlign=middle;resizable=0;points=[];autosize=1;strokeColor=none;fillColor=none;" vertex="1" parent="1">
                    <mxGeometry x="425" y="830" width="50" height="30" as="geometry"/>
                </mxCell>
                <mxCell id="82" value="false" style="text;html=1;align=center;verticalAlign=middle;resizable=0;points=[];autosize=1;strokeColor=none;fillColor=none;" vertex="1" parent="1">
                    <mxGeometry x="400" y="960" width="50" height="30" as="geometry"/>
                </mxCell>
                <mxCell id="83" style="edgeStyle=none;html=1;" edge="1" target="85" parent="1">
                    <mxGeometry relative="1" as="geometry">
                        <mxPoint x="274.49820788530474" y="1059.1039426523298" as="sourcePoint"/>
                    </mxGeometry>
                </mxCell>
                <mxCell id="84" style="edgeStyle=none;html=1;" edge="1" source="85" target="87" parent="1">
                    <mxGeometry relative="1" as="geometry"/>
                </mxCell>
                <mxCell id="85" value="mystery(s1: &quot;YJOBTEST&quot;, s2: &quot;JOB&quot;)" style="whiteSpace=wrap;html=1;" vertex="1" parent="1">
                    <mxGeometry x="140" y="1000" width="220" height="60" as="geometry"/>
                </mxCell>
                <mxCell id="86" value="OR" style="text;html=1;align=center;verticalAlign=middle;resizable=0;points=[];autosize=1;strokeColor=none;fillColor=none;" vertex="1" parent="1">
                    <mxGeometry x="405" y="1015" width="40" height="30" as="geometry"/>
                </mxCell>
                <mxCell id="87" value="return false" style="shape=parallelogram;perimeter=parallelogramPerimeter;whiteSpace=wrap;html=1;fixedSize=1;" vertex="1" parent="1">
                    <mxGeometry x="190" y="1140" width="120" height="60" as="geometry"/>
                </mxCell>
                <mxCell id="102" style="edgeStyle=none;html=1;" edge="1" parent="1" source="88" target="94">
                    <mxGeometry relative="1" as="geometry"/>
                </mxCell>
                <mxCell id="88" value="secret(s1: &quot;JOBTEST&quot;, s2: &quot;JOB&quot;)" style="whiteSpace=wrap;html=1;" vertex="1" parent="1">
                    <mxGeometry x="490" y="1000" width="220" height="60" as="geometry"/>
                </mxCell>
                <mxCell id="90" style="edgeStyle=none;html=1;" edge="1" source="92" target="99" parent="1">
                    <mxGeometry relative="1" as="geometry">
                        <mxPoint x="279.0799999999999" y="1512.16" as="targetPoint"/>
                    </mxGeometry>
                </mxCell>
                <mxCell id="91" style="edgeStyle=none;html=1;" edge="1" source="92" target="101" parent="1">
                    <mxGeometry relative="1" as="geometry">
                        <mxPoint x="548.75" y="1510" as="targetPoint"/>
                    </mxGeometry>
                </mxCell>
                <mxCell id="92" value="s1.length() &amp;lt; s2.length()" style="rhombus;whiteSpace=wrap;html=1;" vertex="1" parent="1">
                    <mxGeometry x="330" y="1380" width="190" height="80" as="geometry"/>
                </mxCell>
                <mxCell id="93" style="edgeStyle=none;html=1;" edge="1" source="94" target="92" parent="1">
                    <mxGeometry relative="1" as="geometry"/>
                </mxCell>
                <mxCell id="94" value="s2.length() == 0" style="rhombus;whiteSpace=wrap;html=1;" vertex="1" parent="1">
                    <mxGeometry x="330" y="1250" width="190" height="80" as="geometry"/>
                </mxCell>
                <mxCell id="95" value="false" style="text;html=1;align=center;verticalAlign=middle;resizable=0;points=[];autosize=1;strokeColor=none;fillColor=none;" vertex="1" parent="1">
                    <mxGeometry x="425" y="1340" width="50" height="30" as="geometry"/>
                </mxCell>
                <mxCell id="96" value="false" style="text;html=1;align=center;verticalAlign=middle;resizable=0;points=[];autosize=1;strokeColor=none;fillColor=none;" vertex="1" parent="1">
                    <mxGeometry x="400" y="1470" width="50" height="30" as="geometry"/>
                </mxCell>
                <mxCell id="97" style="edgeStyle=none;html=1;" edge="1" target="99" parent="1">
                    <mxGeometry relative="1" as="geometry">
                        <mxPoint x="274.49820788530474" y="1569.1039426523298" as="sourcePoint"/>
                    </mxGeometry>
                </mxCell>
                <mxCell id="98" style="edgeStyle=none;html=1;entryX=0.5;entryY=0;entryDx=0;entryDy=0;" edge="1" source="99" parent="1" target="103">
                    <mxGeometry relative="1" as="geometry">
                        <mxPoint x="250" y="1630" as="targetPoint"/>
                    </mxGeometry>
                </mxCell>
                <mxCell id="99" value="mystery(s1: &quot;JOBTEST&quot;, s2: &quot;JOB&quot;)" style="whiteSpace=wrap;html=1;" vertex="1" parent="1">
                    <mxGeometry x="140" y="1510" width="220" height="60" as="geometry"/>
                </mxCell>
                <mxCell id="100" value="OR" style="text;html=1;align=center;verticalAlign=middle;resizable=0;points=[];autosize=1;strokeColor=none;fillColor=none;" vertex="1" parent="1">
                    <mxGeometry x="405" y="1525" width="40" height="30" as="geometry"/>
                </mxCell>
                <mxCell id="101" value="secret(s1: &quot;OBTEST&quot;, s2: &quot;JOB&quot;)" style="whiteSpace=wrap;html=1;" vertex="1" parent="1">
                    <mxGeometry x="490" y="1510" width="220" height="60" as="geometry"/>
                </mxCell>
                <mxCell id="104" style="edgeStyle=none;html=1;" edge="1" parent="1" source="103" target="105">
                    <mxGeometry relative="1" as="geometry">
                        <mxPoint x="250" y="1830" as="targetPoint"/>
                    </mxGeometry>
                </mxCell>
                <mxCell id="103" value="return true" style="shape=parallelogram;perimeter=parallelogramPerimeter;whiteSpace=wrap;html=1;fixedSize=1;" vertex="1" parent="1">
                    <mxGeometry x="190" y="1670" width="120" height="60" as="geometry"/>
                </mxCell>
                <mxCell id="105" value="End" style="ellipse;whiteSpace=wrap;html=1;" vertex="1" parent="1">
                    <mxGeometry x="175" y="1810" width="150" height="80" as="geometry"/>
                </mxCell>
            </root>
        </mxGraphModel>
    </diagram>
</mxfile>